<svg width="128" height="128" viewBox="0 0 128 128" fill="none" xmlns="http://www.w3.org/2000/svg">
<path d="M59.1025 21.6133C61.3059 17.7962 66.8074 17.7962 69.0107 21.6133L82.6807 45.29L99.625 28.3438C103.176 24.7921 109.25 27.3025 109.25 32.3242V97.7686C109.25 104.114 104.109 109.25 97.7705 109.25H30.2227C23.884 109.25 18.75 104.114 18.75 97.7686V32.3574C18.75 27.3267 24.8239 24.8154 28.375 28.373L45.3662 45.4102L59.1025 21.6133ZM48.916 65.1641C45.0713 65.1641 41.9541 68.2812 41.9541 72.126C41.9543 75.9706 45.0714 79.0869 48.916 79.0869C52.7606 79.0869 55.8777 75.9705 55.8779 72.126C55.8779 68.2812 52.7607 65.1641 48.916 65.1641ZM79.084 65.1641C75.2392 65.1641 72.1221 68.2812 72.1221 72.126C72.1223 75.9706 75.2394 79.0869 79.084 79.0869C82.9284 79.0867 86.0447 75.9704 86.0449 72.126C86.0449 68.2813 82.9286 65.1643 79.084 65.1641Z" fill="#171717"/>
</svg>
